<svg style="fill:#fff;" id="Capa_1" enable-background="new 0 0 512 512" height="512" viewBox="0 0 512 512" width="512" xmlns="http://www.w3.org/2000/svg"><g><path d="m244.261 207.903c0-2.724-1.477-5.233-3.858-6.556l-28.858-16.032c-3.621-2.012-8.186-.707-10.198 2.914s-.707 8.187 2.914 10.199l17.057 9.476-17.057 9.476c-3.621 2.012-4.925 6.578-2.914 10.199 1.371 2.467 3.927 3.859 6.563 3.859 1.232 0 2.482-.304 3.635-.945l28.858-16.032c2.382-1.324 3.858-3.834 3.858-6.558z"/><path d="m271.597 214.459 28.858 16.032c1.154.641 2.403.945 3.635.945 2.635 0 5.192-1.392 6.563-3.859 2.012-3.621.707-8.187-2.914-10.199l-17.057-9.476 17.057-9.476c3.621-2.012 4.925-6.578 2.914-10.199-2.011-3.62-6.578-4.925-10.198-2.914l-28.858 16.032c-2.381 1.323-3.858 3.833-3.858 6.556s1.476 5.236 3.858 6.558z"/><path d="m159.232 295.15c-.514-4.11-4.267-7.028-8.372-6.512l-64.129 8.016c-4.11.514-7.026 4.262-6.512 8.372.474 3.794 3.705 6.571 7.433 6.571.31 0 .624-.02.939-.059l64.129-8.016c4.111-.513 7.027-4.262 6.512-8.372z"/><path d="m137.534 340.321c1.445 2.168 3.823 3.341 6.247 3.341 1.43 0 2.875-.408 4.153-1.261l24.048-16.032c3.447-2.297 4.378-6.954 2.08-10.4-2.297-3.446-6.954-4.377-10.4-2.08l-24.048 16.032c-3.447 2.297-4.378 6.954-2.08 10.4z"/><path d="m119.726 271.516h16.033c4.142 0 7.5-3.358 7.5-7.5s-3.358-7.5-7.5-7.5h-16.033c-4.142 0-7.5 3.358-7.5 7.5s3.357 7.5 7.5 7.5z"/><path d="m287.548 280.048v-8.016c0-17.396-14.152-31.548-31.548-31.548s-31.548 14.152-31.548 31.548v8.016c0 4.142 3.358 7.5 7.5 7.5h48.097c4.141 0 7.499-3.358 7.499-7.5zm-15-7.5h-33.097v-.516c0-9.125 7.423-16.548 16.548-16.548s16.548 7.423 16.548 16.548v.516z"/><path d="m272.032 376.758h-11.913l10.605-21.211c1.853-3.705.351-8.21-3.354-10.062-3.705-1.854-8.21-.35-10.062 3.354l-16.032 32.065c-1.163 2.325-1.039 5.086.328 7.297s3.781 3.557 6.38 3.557h11.913l-10.605 21.21c-1.853 3.705-.351 8.21 3.354 10.062 1.077.539 2.221.793 3.348.793 2.751 0 5.4-1.52 6.714-4.147l16.032-32.064c1.163-2.325 1.039-5.086-.328-7.297s-3.781-3.557-6.38-3.557z"/><path d="m425.269 296.655-64.129-8.016c-4.114-.511-7.858 2.402-8.372 6.512s2.401 7.858 6.512 8.372l64.129 8.016c.316.04.629.059.939.059 3.728 0 6.958-2.776 7.433-6.571.514-4.11-2.402-7.859-6.512-8.372z"/><path d="m337.937 315.969c-2.298 3.446-1.367 8.103 2.08 10.4l24.048 16.032c1.279.853 2.724 1.261 4.153 1.261 2.423 0 4.802-1.173 6.247-3.341 2.298-3.446 1.367-8.103-2.08-10.4l-24.048-16.032c-3.446-2.298-8.103-1.368-10.4 2.08z"/><path d="m368.742 264.016c0 4.142 3.358 7.5 7.5 7.5h16.033c4.142 0 7.5-3.358 7.5-7.5s-3.358-7.5-7.5-7.5h-16.033c-4.142 0-7.5 3.358-7.5 7.5z"/><path d="m386.958 391.004-73.344-31.412c-6.095-2.61-10.034-8.582-10.034-15.212v-29.38c7.251-4.17 14-9.321 20.073-15.395 16.292-16.292 25.984-37.424 27.735-60.154h3.669c14.617 0 27.155-10.861 28.542-24.727.778-7.771-1.764-15.53-6.974-21.288-.293-.323-.595-.636-.901-.944v-24.67c0-39.186-18.924-74.035-48.112-95.89.004-.102.015-.201.015-.303.002-39.496-32.131-71.629-71.627-71.629s-71.629 32.133-71.629 71.629c0 .083.01.163.012.245-3.523 2.635-6.921 5.47-10.171 8.511-22.143 20.721-35.51 48.739-37.638 78.893-.292 4.132 2.822 7.718 6.954 8.009 4.118.286 7.718-2.821 8.009-6.954 1.861-26.367 13.554-50.87 32.924-68.996 19.463-18.211 44.869-28.24 71.539-28.24 57.746 0 104.726 46.979 104.726 104.726v16.929c-1.486-.249-2.998-.381-4.524-.381h-12.024c-4.705 0-8.532-3.828-8.532-8.565 0-8.249-6.231-15.27-14.495-16.33-72.979-9.367-124.413-45.493-124.924-45.857-3.37-2.403-8.051-1.622-10.458 1.747-2.408 3.371-1.627 8.055 1.744 10.462.572.408 4.537 3.206 11.442 7.3-13.428 7.094-22.599 21.206-22.599 37.419v5.291c0 4.705-3.828 8.532-8.532 8.532h-10.879c-14.617 0-27.155 10.86-28.544 24.725-.778 7.771 1.764 15.531 6.974 21.289 5.213 5.762 12.658 9.067 20.425 9.067h4.816c2.516 32.289 21.132 60.13 47.806 75.484v29.445c0 6.63-3.938 12.602-10.034 15.212l-73.344 31.412c-17.525 7.506-28.849 24.674-28.849 43.738v69.758c0 4.142 3.358 7.5 7.5 7.5s7.5-3.358 7.5-7.5v-69.757c0-13.054 7.754-24.81 19.754-29.949l33.684-14.426c6.971 11.831 29.568 45.979 71.197 71.512 6.127 3.758 13.149 5.637 20.171 5.637s14.044-1.879 20.171-5.637c41.629-25.533 64.226-59.681 71.197-71.512l33.684 14.426c12 5.139 19.754 16.895 19.754 29.949v69.757c0 4.142 3.358 7.5 7.5 7.5s7.5-3.358 7.5-7.5v-69.757c0-19.065-11.324-36.233-28.849-43.739zm-186.725-329.15c4.647-26.581 27.877-46.854 55.767-46.854 27.91 0 51.154 20.302 55.777 46.911-16.667-8.813-35.647-13.814-55.777-13.814-19.67 0-38.736 4.779-55.767 13.757zm-24.91 170.098c0-4.142-3.358-7.5-7.5-7.5h-12.024c-3.537 0-6.927-1.505-9.303-4.131-2.407-2.66-3.533-6.115-3.171-9.729.63-6.292 6.612-11.22 13.619-11.22h10.879c12.976 0 23.532-10.557 23.532-23.532v-5.291c0-14.709 11.699-26.738 26.309-27.271 23.253 11.562 58.635 25.566 101.577 31.077.813.104 1.404.715 1.404 1.485 0 12.976 10.557 23.532 23.532 23.532h12.024c3.537 0 6.927 1.505 9.303 4.13 2.407 2.66 3.533 6.115 3.17 9.729-.629 6.292-6.611 11.221-13.616 11.221h-10.882c-1.989 0-3.897.79-5.303 2.197-1.407 1.406-2.197 3.314-2.197 5.303 0 21.55-8.392 41.81-23.629 57.048s-35.498 23.63-57.047 23.63c-44.486-.001-80.677-36.193-80.677-80.678zm93.006 217.141c-7.489 4.593-17.168 4.593-24.657 0-36.668-22.49-57.78-52.825-65.094-64.698l25.714-11.013c11.62-4.977 19.128-16.36 19.128-29.001v-22.471c10.174 3.697 21.145 5.719 32.58 5.719 11.286 0 22.273-1.944 32.581-5.668v22.42c0 12.641 7.508 24.024 19.128 29.001l25.713 11.012c-7.318 11.88-28.429 42.211-65.093 64.699z"/></g></svg>