<svg style="fill:#fff;" id="Capa_1" enable-background="new 0 0 512 512" height="512" viewBox="0 0 512 512" width="512" xmlns="http://www.w3.org/2000/svg"><g><path d="m201.346 227.578c1.371 2.467 3.927 3.859 6.563 3.859 1.232 0 2.482-.304 3.635-.945l28.858-16.032c2.381-1.323 3.858-3.833 3.858-6.556s-1.477-5.233-3.858-6.556l-28.858-16.032c-3.621-2.012-8.186-.707-10.198 2.914s-.707 8.187 2.914 10.199l17.057 9.476-17.057 9.476c-3.621 2.01-4.926 6.576-2.914 10.197z"/><path d="m310.652 188.229c-2.011-3.62-6.578-4.925-10.198-2.914l-28.858 16.032c-2.381 1.323-3.858 3.833-3.858 6.556s1.477 5.233 3.858 6.556l28.858 16.032c1.154.641 2.403.945 3.635.945 2.635 0 5.192-1.392 6.563-3.859 2.012-3.621.707-8.187-2.914-10.199l-17.057-9.476 17.057-9.476c3.621-2.01 4.926-6.576 2.914-10.197z"/><path d="m399.272 391.178-82.382-33.793c-3.216-1.319-5.294-4.417-5.294-7.894v-39.686c.355-.254.716-.495 1.068-.754 22.402-16.49 36.525-42.1 38.713-69.599h3.679c14.617 0 27.155-10.861 28.543-24.727.778-7.771-1.764-15.53-6.974-21.288-.293-.323-.595-.636-.901-.944v-80.783c0-27.944-18.689-53.02-45.448-60.979-2.962-.881-6.02-1.551-9.086-1.989-4.1-.589-7.9 2.262-8.486 6.363-.586 4.1 2.262 7.899 6.363 8.486 2.34.335 4.673.845 6.932 1.518 20.446 6.083 34.726 25.246 34.726 46.603v73.042c-1.486-.249-2.998-.381-4.524-.381h-12.024c-4.705 0-8.532-3.828-8.532-8.564v-24.016c0-12.976-10.557-23.532-23.532-23.532h-40.081c-4.142 0-7.5 3.358-7.5 7.5s3.358 7.5 7.5 7.5h40.081c4.705 0 8.532 3.828 8.532 8.532v24.048c0 12.976 10.557 23.532 23.532 23.532h12.024c3.537 0 6.927 1.505 9.303 4.13 2.407 2.66 3.533 6.115 3.17 9.729-.63 6.292-6.611 11.221-13.617 11.221h-10.881c-1.989 0-3.896.79-5.303 2.197-1.407 1.406-2.197 3.314-2.197 5.303 0 25.547-12.299 49.853-32.903 65.02-20.979 15.443-47.865 19.677-73.768 11.616-32.196-10.02-54.682-41.534-54.682-76.635 0-4.142-3.358-7.5-7.5-7.5h-12.024c-3.537 0-6.928-1.505-9.303-4.131-2.407-2.66-3.533-6.115-3.171-9.729.63-6.292 6.612-11.221 13.619-11.221h10.879c12.976 0 23.532-10.557 23.532-23.532v-24.048c0-4.142-3.358-7.5-7.5-7.5s-7.5 3.358-7.5 7.5v24.048c0 4.705-3.828 8.532-8.532 8.532h-10.879c-1.934 0-3.829.195-5.669.557v-65.203c0-14.448 7.779-27.924 20.302-35.169 3.585-2.074 4.81-6.662 2.736-10.248-2.075-3.585-6.662-4.81-10.248-2.736-17.142 9.917-27.79 28.368-27.79 48.152v73.151c-4.341 4.313-7.248 9.958-7.875 16.22-.778 7.771 1.763 15.53 6.973 21.288 5.214 5.762 12.659 9.067 20.425 9.067h4.819c1.367 17.454 7.458 34.513 17.496 48.711 6.247 8.837 13.771 16.34 22.291 22.348v39.158c0 3.418-2.031 6.497-5.173 7.843l-83.064 35.575c-14.573 6.241-23.989 20.517-23.989 36.37v75.043c0 4.142 3.358 7.5 7.5 7.5s7.5-3.358 7.5-7.5v-75.044c0-9.843 5.846-18.706 14.894-22.581l39.919-17.096c9.078 16.569 22.213 30.604 38.238 40.772 17.859 11.332 38.528 17.321 59.772 17.321 41.114 0 79.075-22.919 98.427-58.876l39.153 16.061c9.259 3.798 15.242 12.719 15.242 22.727v76.716c0 4.142 3.358 7.5 7.5 7.5s7.5-3.358 7.5-7.5v-76.718c-.001-16.119-9.637-30.487-24.551-36.604zm-143.273 41.693c-35.222 0-66.967-18.652-84.149-49.029l15.802-6.768c14.354 24.035 40.02 38.732 68.347 38.732 5.966 0 11.917-.664 17.688-1.973 4.04-.916 6.571-4.934 5.655-8.973-.916-4.04-4.934-6.575-8.973-5.655-4.684 1.062-9.519 1.601-14.37 1.601-22.308 0-42.587-11.229-54.418-29.717 8.409-3.811 13.822-12.158 13.822-21.421v-30.6c3.284 1.472 6.667 2.759 10.145 3.841 10.104 3.145 20.345 4.693 30.427 4.693 14.124 0 27.935-3.046 40.622-8.996v30.884c0 9.324 5.431 17.65 13.888 21.447-3.753 5.852-8.462 11.145-13.857 15.509-3.22 2.605-3.719 7.328-1.114 10.548 1.482 1.832 3.649 2.783 5.835 2.783 1.657 0 3.325-.546 4.713-1.669 7.451-6.028 13.639-13.209 18.472-21.377l15.944 6.541c-16.974 30.345-49.409 49.599-84.479 49.599z"/><path d="m233.384 255.38c-3.415 2.345-4.282 7.013-1.938 10.428 2.344 3.414 7.013 4.283 10.428 1.938 3.515-2.414 8.664-3.798 14.125-3.798s10.61 1.384 14.125 3.798c1.297.891 2.775 1.317 4.238 1.317 2.388 0 4.736-1.138 6.19-3.255 2.344-3.415 1.477-8.083-1.938-10.428-6.041-4.147-14.073-6.432-22.615-6.432s-16.574 2.285-22.615 6.432z"/><path d="m199.886 87.145h15.761l-7.191 71.916c-.34 3.402 1.664 6.604 4.873 7.785.848.312 1.723.462 2.588.462 2.408 0 4.736-1.163 6.168-3.231l72.145-104.21c1.588-2.293 1.771-5.279.477-7.75-1.295-2.471-3.854-4.019-6.644-4.019h-21.659l12.742-38.225c.762-2.287.379-4.801-1.031-6.757-1.409-1.957-3.673-3.116-6.084-3.116h-64.129c-3.822 0-7.032 2.874-7.454 6.672l-8.016 72.145c-.236 2.12.443 4.24 1.866 5.83 1.423 1.589 3.455 2.498 5.588 2.498zm14.729-72.145h47.01l-12.742 38.225c-.762 2.287-.379 4.801 1.031 6.757s3.674 3.115 6.084 3.115h17.75l-47.481 68.583 5.129-51.289c.211-2.108-.48-4.208-1.902-5.779s-3.442-2.467-5.561-2.467h-15.669z"/><path d="m145.549 51.741c1.445 2.168 3.823 3.341 6.247 3.341 1.43 0 2.875-.408 4.153-1.261 3.447-2.297 4.378-6.954 2.08-10.4l-16.032-24.048c-2.297-3.447-6.955-4.378-10.4-2.08-3.447 2.297-4.378 6.954-2.08 10.4z"/><path d="m101.321 70.728 24.048 8.016c.787.262 1.586.387 2.373.387 3.14 0 6.066-1.988 7.114-5.13 1.31-3.929-.814-8.177-4.744-9.487l-24.048-8.016c-3.93-1.309-8.176.814-9.487 4.744-1.309 3.929.814 8.176 4.744 9.486z"/><path d="m364.064 53.821c1.278.853 2.724 1.261 4.153 1.261 2.423 0 4.802-1.173 6.247-3.341l16.033-24.048c2.298-3.446 1.367-8.103-2.08-10.4-3.445-2.297-8.103-1.367-10.4 2.08l-16.033 24.047c-2.298 3.447-1.366 8.103 2.08 10.401z"/><path d="m385.158 74c1.048 3.143 3.974 5.13 7.114 5.13.786 0 1.586-.125 2.373-.387l24.048-8.016c3.93-1.31 6.053-5.557 4.744-9.487-1.31-3.93-5.558-6.053-9.487-4.744l-24.048 8.016c-3.93 1.312-6.053 5.559-4.744 9.488z"/></g></svg>