<svg style="fill:#fff;" id="Capa_1" enable-background="new 0 0 512 512" height="512" viewBox="0 0 512 512" width="512" xmlns="http://www.w3.org/2000/svg"><g><path d="m437 106c-41.353 0-75 33.647-75 75v36.211l30 30v128.789h90v-128.789l30-30v-36.211c0-41.353-33.647-75-75-75z"/><path d="m100.478 430.521-17.432-24.404-62.857 44.883 62.784 45 17.431-24.404-7.769-5.596h327.9l-7.705 5.596 17.432 24.404 62.549-45-66.05-47.168-17.432 24.404 10.866 7.764h-327.386z"/><path d="m211 406v-110.211l-55.605 54.606 21.21 21.21 4.395-4.394v38.789z"/><path d="m241 295.789v110.211h30v-38.789l15 15 15-15v38.789h30v-110.211l-45 44z"/><circle cx="437" cy="61" r="45"/><path d="m31 376h90v-128.789l30-30v-36.211c0-41.353-33.647-75-75-75s-76 33.647-76 75v36.211l31 30z"/><circle cx="76" cy="61" r="45"/></g></svg>